<svg xmlns="http://www.w3.org/2000/svg" xmlns:xlink="http://www.w3.org/1999/xlink" width="500" zoomAndPan="magnify" viewBox="0 0 375 374.999991" height="500" preserveAspectRatio="xMidYMid meet" version="1.0"><defs><g/></defs><g fill="#c3c6b1" fill-opacity="1"><g transform="translate(167.168929, 264.283005)"><g><path d="M 6.359375 0 L 6.359375 -1.8125 L 10.1875 -1.8125 C 14.425781 -1.8125 17.726562 -2.78125 20.09375 -4.71875 C 22.457031 -6.664062 23.640625 -9.941406 23.640625 -14.546875 L 23.640625 -115.796875 C 23.640625 -120.046875 22.457031 -123.140625 20.09375 -125.078125 C 17.726562 -127.015625 14.425781 -127.984375 10.1875 -127.984375 L 6.359375 -127.984375 L 6.359375 -129.796875 L 56.359375 -129.796875 C 88.472656 -129.796875 104.53125 -119.375 104.53125 -98.53125 C 104.53125 -80.476562 92.472656 -70.539062 68.359375 -68.71875 L 68.359375 -68.359375 C 82.773438 -67.867188 93.316406 -64.65625 99.984375 -58.71875 C 106.648438 -52.78125 109.984375 -44.84375 109.984375 -34.90625 C 109.984375 -11.632812 93.925781 0 61.8125 0 Z M 44.71875 -68.90625 L 55.8125 -68.90625 C 65.257812 -68.90625 71.984375 -71.113281 75.984375 -75.53125 C 79.984375 -79.957031 81.984375 -87.320312 81.984375 -97.625 C 81.984375 -108.65625 79.953125 -116.472656 75.890625 -121.078125 C 71.835938 -125.679688 65.023438 -127.984375 55.453125 -127.984375 L 44.71875 -127.984375 Z M 44.71875 -1.8125 L 60.90625 -1.8125 C 70.476562 -1.8125 77.289062 -4.359375 81.34375 -9.453125 C 85.40625 -14.546875 87.4375 -22.96875 87.4375 -34.71875 C 87.4375 -46.351562 85.4375 -54.65625 81.4375 -59.625 C 77.445312 -64.59375 70.722656 -67.078125 61.265625 -67.078125 L 44.71875 -67.078125 Z M 44.71875 -1.8125 "/></g></g></g><g fill="#c3c6b1" fill-opacity="1"><g transform="translate(78.610336, 208.612707)"><g><path d="M 6.359375 0 L 6.359375 -1.8125 L 10.1875 -1.8125 C 14.425781 -1.8125 17.726562 -2.78125 20.09375 -4.71875 C 22.457031 -6.664062 23.640625 -9.878906 23.640625 -14.359375 L 23.640625 -115.796875 C 23.640625 -120.160156 22.457031 -123.28125 20.09375 -125.15625 C 17.726562 -127.039062 14.425781 -127.984375 10.1875 -127.984375 L 6.359375 -127.984375 L 6.359375 -129.796875 L 100.53125 -129.796875 L 101.625 -97.625 L 99.8125 -97.625 L 99.265625 -103.625 C 98.773438 -112.71875 96.53125 -119.050781 92.53125 -122.625 C 88.53125 -126.195312 81.925781 -127.984375 72.71875 -127.984375 L 44.90625 -127.984375 L 44.90625 -65.8125 L 89.8125 -65.8125 L 89.8125 -64 L 44.90625 -64 L 44.90625 -14.546875 C 44.90625 -9.941406 46.023438 -6.664062 48.265625 -4.71875 C 50.503906 -2.78125 53.804688 -1.8125 58.171875 -1.8125 L 63.078125 -1.8125 L 63.078125 0 Z M 6.359375 0 "/></g></g></g></svg>